# xmcd
#
# Track frame offsets:
# 150
# 16094
# 33017
# 54778
# 74867
# 98786
# 115235
#
# Disc length: 1862 seconds
#
# Revision: 1
# Processed by: cddbd v1.4PL0 Copyright (c) Steve Scherf et al.
# Submitted via: inCDius 2.0b9
#
DISCID=50074407
DTITLE=Vigilantes of Love - Free For Good
DYEAR=1900
DGENRE=
TTITLE0=Cloth of Life
TTITLE1=In The Box
TTITLE2=When You're Blinded By The Light
TTITLE3=Go And Ask Her
TTITLE4=Where My Seed Might Find Purchase
TTITLE5=She Walks On Roses
TTITLE6=Back To Its Source
EXTD=
EXTT0=
EXTT1=
EXTT2=
EXTT3=
EXTT4=
EXTT5=
EXTT6=
PLAYORDER=
